<?xml version="1.0" encoding="utf-8"?>
<!-- Generator: Adobe Illustrator 15.0.0, SVG Export Plug-In . SVG Version: 6.00 Build 0)  -->
<!DOCTYPE svg PUBLIC "-//W3C//DTD SVG 1.1//EN" "http://www.w3.org/Graphics/SVG/1.1/DTD/svg11.dtd">
<svg version="1.1" id="Layer_1" xmlns="http://www.w3.org/2000/svg" xmlns:xlink="http://www.w3.org/1999/xlink" x="0px" y="0px"
	 width="105px" height="85px" viewBox="0 0 105 85" enable-background="new 0 0 105 85" xml:space="preserve">
<path fill="#FFFFFF" d="M100.533,3.256l-3.103,1.661l-0.104,0.032l0.93,0.361l-1.486-0.178l-1.846,0.609l-2.144,1.35l1.384,0.536
	L92.15,7.385l-2.2,0.73l-2.27,1.42l1.573,0.612l-2.441-0.292l-1.935,0.525l-2.232,1.51l1.948,0.76l-2.798-0.336l-1.942,0.62
	l-2.434,1.483l1.516,0.588l-2.244-0.269l-2.001,0.459l-2.325,1.623l1.609,0.626l-2.371-0.284l-0.259,0.078
	c0.893-1.854,2.67-3.789,2.944-4.694c1.048-3.462-1.917-6.398-3.632-8.88c2.115,3.122,0.06,8.855-4.578,6.843
	c-3.445-1.494-3.527-5.362-2.845-8.374c-3.559,1.797-3.076,5.324-3.049,8.995c-0.454-2.076-2.864-2.99-4.34-4.228
	c-2.711-2.275-2.93-3.074-3.218-6.639c-2.103,0.43-3.625,2.347-5.443,3.398c-0.764-0.885-1.287-1.967-1.147-3.159
	c-1.587,1.357-1.255,2.879-1.36,4.969c-2.936-1.128-6.564-0.606-9.739-0.398c0.735,1.266,2.894,0.902,4.02,2.196
	c-4.575,0.26-10.185-0.246-14.229,2.285c2.909-0.571,6.898,0.103,9.338,0.012c-2.261,0.975-4.993,1.298-7.085,2.351
	c-2.598,1.306-5.019,4.143-6.838,6.36c-2.122,2.583-3.034,5.019-6.646,7.533c-1.298,0.903-4.745,3.685-5.559,6.203
	c-0.81,2.517-3.706,5.993-3.706,5.993s3.792-1.228,5.292-2.484c1.119-0.936,1.646-2.958,3.078-3.173
	c0.685,4.544-5.524,8.831-7.988,12.034c-2.406,3.129-2.604,5.43-2.685,9.266c1.389-1.815,1.837-3.494,3.685-4.979
	c2.948-2.37,4.296-1.825,3.387,1.854c-1.223,4.949-5.826,9.411-5.872,14.541c0.929-0.526,3.638-4.482,4.703-5.213
	c0.821-0.564,2.248-0.917,3.179-1.104c0.105,2.3-0.442,4.367-1.078,6.568c-1.233,4.282-2.274,5.764-5.912,8.645
	c3.638,0,4.312-1.25,6.135-3.122c-0.01,2.463-1.663,8.808-4.595,11.317C2.628,84.661,0,84.043,0,84.043s2.995,1.289,6.779,0.356
	c1.804-0.445,3.206-2.279,4.927-2.904c9.114-5.593,18.272-6.759,24.486-6.345s28.288-6.669,30.609-13.172
	c-1.541-1.67-2.073-2.959-5.482-6.066c-3.413-3.109-7.886-7.432-6.065-8.873c0,0,1.325,2.01,5.041,1.669c0,0,1.249,3.07,3.299,3.261
	c2.047,0.188,3.866,1.403,3.98,4.359c0.114,2.957,0.568,3.412,1.971,3.488c1.403,0.076,1.441,0.19,2.16,0.531
	c0.722,0.342,1.974,0.342,2.428-0.303l1.441-0.038c0,0-0.038-0.759-0.949-1.935c-0.91-1.175-1.856-2.085-1.856-3.07
	c0-0.986-0.646-3.033-1.518-3.375c0,0,4.435-0.189,4.74,4.854c0,0,0.416,0.872,1.021,1.137c0,0,0.493,2.123,1.557-0.227
	c0,0,0.683,0.834,1.554,0.796s2.085-1.858,2.313-2.503c0,0,2.159-2.389,2.159-3.45c0-1.061-0.378-2.009-0.757-2.312
	c0,0-0.114-0.645-1.365-2.883c-1.25-2.236-4.625-8.72-5.384-10.085c-0.759-1.364-1.291-4.17-1.782-4.928
	c-0.493-0.757-0.606-1.137-0.606-1.858c0-0.367-0.326-1.186-0.725-2.031l4.141-2.009l1.223-2.479l3.688-2.153l2.081-2.633
	l3.107-1.629l1.466-2.165l3.072-1.632l1.534-2.183l2.818-1.522l1.324-1.914l2.195-0.959l0.799-1.526l2.628-3.579L100.533,3.256z"/>
</svg>
